<svg width="108" height="65" viewBox="0 0 108 65" fill="none" xmlns="http://www.w3.org/2000/svg">
<g clip-path="url(#clip0_9_137)">
<path d="M85.8273 8.27558C85.8273 4.21258 79.6025 4.21258 79.6025 8.27558C79.6025 12.3386 85.8273 12.3464 85.8273 8.27558Z" fill="#545554"/>
<path d="M70.9533 13.0866C70.7307 13.0866 70.5478 13.2599 70.5399 13.4725L70.3888 15.9921C69.1804 13.8977 66.4616 12.567 63.6075 12.567C57.3827 12.5276 52.5015 16.3307 52.5015 23.6142C52.5015 30.8977 57.1681 34.8662 63.4724 34.8268C65.8494 34.7874 69.1725 33.5827 70.3888 31.1024L70.6512 34.1811H74.8806C75.286 34.1811 75.6199 33.8504 75.6199 33.4488V13.0788H70.9533V13.0866ZM65.9289 29.567C61.5167 30.7166 57.5099 28.2362 57.5099 23.4252C57.5099 18.6142 61.5008 16.2047 65.8971 17.315C72.1537 18.8898 72.1776 27.937 65.9369 29.567H65.9289Z" fill="#545554"/>
<path d="M39.249 12.7874C36.8164 12.7874 34.6222 13.4488 32.8334 15.6457C32.4916 16.063 31.8476 16.0079 31.5535 15.5512C30.2179 13.4646 28.0078 12.7008 25.8057 12.7008C23.7784 12.7008 21.314 13.4725 20.1851 15.6142C19.9625 14.1418 18.6825 13.0473 17.172 13.0473H12.9824V31.189C12.9824 32.3543 13.6502 33.3622 14.6281 33.8583C15.0415 34.0709 15.5105 34.189 16.0114 34.189H19.4298C19.8432 34.189 20.1851 33.8583 20.1851 33.441V22.8898C20.1851 20.1024 21.8705 17.5827 24.7245 17.5827C27.5785 17.5827 29.089 20.1024 29.089 22.8898V33.441C29.089 33.8504 29.4229 34.189 29.8443 34.189H33.6125C34.0259 34.189 34.3678 33.8583 34.3678 33.441V22.8898C34.3678 20.1024 36.1406 17.6693 38.9946 17.6693C41.8487 17.6693 43.0094 20.0236 43.0094 22.8032V33.441C43.0094 33.8504 43.3433 34.189 43.7646 34.189H47.5329C47.9463 34.189 48.2881 33.8583 48.2881 33.441V22.8032C48.2881 16.4725 45.3069 12.7874 39.257 12.7874H39.249Z" fill="#545554"/>
<path d="M84.1659 13.0079H81.2641C80.6099 13.0079 80.0796 13.5331 80.0796 14.1811V33.0236C80.0796 33.6716 80.6099 34.1968 81.2641 34.1968H84.1659C84.8201 34.1968 85.3504 33.6716 85.3504 33.0236V14.1811C85.3504 13.5331 84.8201 13.0079 84.1659 13.0079Z" fill="#545554"/>
<path d="M98.8813 30.3779C96.5042 30.3386 93.046 29.0945 91.5355 27.4252L88.9438 31.1496C92.0602 34.3622 95.431 34.9134 98.8018 34.9134C104.891 34.9134 107.96 31.7008 107.96 27.9763C107.96 22.37 102.864 21.4724 98.8415 21.2126C96.1147 21.0393 94.8666 20.2677 94.8666 18.9055C94.8666 17.5433 96.2499 16.811 98.7541 16.811C100.781 16.811 102.514 17.2834 104.025 18.6929L106.966 15.2677C104.502 13.126 101.998 12.4803 98.6666 12.4803C94.7712 12.4803 89.6752 14.1968 89.6752 19.0708C89.6752 23.9449 94.4691 25.3228 98.4917 25.622C101.513 25.7952 102.721 26.3937 102.721 27.8425C102.721 29.3858 100.861 30.4094 98.8733 30.37L98.8813 30.3779Z" fill="#545554"/>
<path d="M13.2446 62.0315C13.2446 60.8976 14.0635 60.0787 15.1924 60.0787C15.733 60.0787 16.0987 60.2283 16.3849 60.4252C16.361 60.5276 16.2895 60.6299 16.1941 60.6772C15.8999 60.4882 15.6137 60.3858 15.1924 60.3858C14.2622 60.3858 13.6024 61.0394 13.6024 62.0315C13.6024 63.0236 14.2463 63.6614 15.1526 63.6614C15.6932 63.6614 16.0033 63.5197 16.2497 63.3307C16.361 63.3858 16.4087 63.4488 16.4326 63.5748C16.1702 63.7795 15.7886 63.9685 15.1606 63.9685C13.9999 63.9685 13.2446 63.1496 13.2446 62.0315Z" fill="url(#paint0_linear_9_137)"/>
<path d="M20.2407 63.8819V60.0787C20.2964 60.0709 20.352 60.063 20.4077 60.063C20.4633 60.063 20.5349 60.063 20.5826 60.0787V63.8819C20.5349 63.8898 20.4633 63.8976 20.4077 63.8976C20.352 63.8976 20.2964 63.8976 20.2407 63.8819Z" fill="url(#paint1_linear_9_137)"/>
<path d="M24.422 60.7165L25.1932 59.8976C25.3363 59.9528 25.4158 60.0315 25.4555 60.1575L24.5413 60.8425C24.4697 60.811 24.4379 60.7795 24.4141 60.7165H24.422ZM24.7241 63.8819V61.1654C24.7798 61.1496 24.8434 61.1417 24.899 61.1417C24.9547 61.1417 25.0183 61.1417 25.066 61.1654V63.8819C25.0183 63.8898 24.9547 63.8976 24.899 63.8976C24.8434 63.8976 24.7798 63.8976 24.7241 63.8819Z" fill="url(#paint2_linear_9_137)"/>
<path d="M31.6804 62.189V63.8819C31.6248 63.8898 31.5612 63.8976 31.5055 63.8976C31.4499 63.8976 31.3863 63.8976 31.3306 63.8819V62.2835C31.3306 61.7244 31.0603 61.3937 30.3925 61.3937C30.0109 61.3937 29.677 61.5275 29.5021 61.6299V63.8819C29.4465 63.8898 29.3829 63.8976 29.3272 63.8976C29.2716 63.8976 29.208 63.8976 29.1523 63.8819V61.4803C29.4147 61.2913 29.8758 61.0866 30.4323 61.0866C31.2988 61.0866 31.6725 61.5748 31.6725 62.189H31.6804Z" fill="url(#paint3_linear_9_137)"/>
<path d="M35.6636 60.3543C35.6636 60.2126 35.7908 60.1024 35.9418 60.1024C36.0929 60.1024 36.2042 60.2205 36.2042 60.3543C36.2042 60.4882 36.0849 60.6063 35.9418 60.6063C35.7987 60.6063 35.6636 60.4961 35.6636 60.3543ZM35.7669 63.8819V61.1653C35.8226 61.1496 35.8862 61.1417 35.9418 61.1417C35.9975 61.1417 36.0611 61.1417 36.1088 61.1653V63.8819C36.0611 63.8898 35.9975 63.8976 35.9418 63.8976C35.8862 63.8976 35.8226 63.8976 35.7669 63.8819Z" fill="url(#paint4_linear_9_137)"/>
<path d="M40.0361 62.5276C40.0361 61.6535 40.696 61.0945 41.4989 61.0945C41.96 61.0945 42.2701 61.252 42.4609 61.4094C42.4291 61.5039 42.3655 61.5905 42.2621 61.6457C42.0793 61.5039 41.8567 61.3937 41.4989 61.3937C40.7834 61.3937 40.3939 61.9291 40.3939 62.5354C40.3939 63.1417 40.7834 63.6614 41.4989 63.6614C41.9123 63.6614 42.1508 63.5118 42.3098 63.3858C42.4052 63.4409 42.4688 63.5118 42.5006 63.6142C42.278 63.7953 41.9362 63.9528 41.4989 63.9528C40.6642 63.9528 40.0361 63.4252 40.0361 62.5276Z" fill="url(#paint5_linear_9_137)"/>
<path d="M48.4709 62.1181V63.7087C48.1688 63.8661 47.6759 63.9606 47.2864 63.9606C46.4675 63.9606 46.0859 63.5905 46.0859 63.0866C46.0859 62.5354 46.5947 62.2362 47.2546 62.2362C47.6282 62.2362 47.9224 62.315 48.137 62.4173V62.1339C48.137 61.6299 47.7872 61.4016 47.2625 61.4016C46.8809 61.4016 46.6027 61.5197 46.388 61.6693C46.2926 61.622 46.237 61.5433 46.2131 61.4567C46.3562 61.3307 46.7299 61.1024 47.2705 61.1024C47.9303 61.1024 48.463 61.3937 48.463 62.126L48.4709 62.1181ZM47.2864 63.6693C47.6441 63.6693 47.9383 63.6063 48.137 63.5276V62.7165C47.9144 62.6063 47.5964 62.5197 47.2546 62.5197C46.7378 62.5197 46.4357 62.7165 46.4357 63.0551C46.4357 63.4173 46.7219 63.6614 47.2864 63.6614V63.6693Z" fill="url(#paint6_linear_9_137)"/>
<path d="M57.1841 63.8819V60.1102C57.2397 60.0866 57.3033 60.0787 57.359 60.0787C57.4146 60.0787 57.4782 60.0866 57.5259 60.1102V63.8819C57.4782 63.8976 57.4146 63.9055 57.359 63.9055C57.3033 63.9055 57.2397 63.8976 57.1841 63.8819Z" fill="url(#paint7_linear_9_137)"/>
<path d="M64.1482 62.189V63.8819C64.0926 63.8898 64.0289 63.8976 63.9733 63.8976C63.9177 63.8976 63.854 63.8976 63.7984 63.8819V62.2835C63.7984 61.7244 63.5281 61.3937 62.8603 61.3937C62.4787 61.3937 62.1448 61.5275 61.9699 61.6299V63.8819C61.9143 63.8898 61.8507 63.8976 61.795 63.8976C61.7394 63.8976 61.6758 63.8976 61.6201 63.8819V61.4803C61.8825 61.2913 62.3436 61.0866 62.9001 61.0866C63.7666 61.0866 64.1402 61.5748 64.1402 62.189H64.1482Z" fill="url(#paint8_linear_9_137)"/>
<path d="M70.0151 63.7008C69.8959 63.7953 69.6335 63.9528 69.2519 63.9528C68.759 63.9528 68.3377 63.7087 68.3377 63.0787V61.4488H67.8289C67.813 61.4016 67.813 61.3622 67.813 61.315C67.813 61.2677 67.813 61.2283 67.8289 61.189H68.3377V60.4488C68.3854 60.4409 68.449 60.4331 68.5046 60.4331C68.5682 60.4331 68.6239 60.4331 68.6716 60.4488V61.189H69.8402C69.8561 61.2362 69.8561 61.2756 69.8561 61.315C69.8561 61.3622 69.8561 61.4016 69.8402 61.4488H68.6716V63C68.6716 63.5354 68.9657 63.6693 69.2758 63.6693C69.5381 63.6693 69.721 63.5591 69.8561 63.4724C69.9436 63.5276 69.9913 63.6142 70.0072 63.7008H70.0151Z" fill="url(#paint9_linear_9_137)"/>
<path d="M76.0891 62.5827H73.8154C73.8313 63.2283 74.2447 63.6535 74.8886 63.6535C75.3736 63.6535 75.628 63.4803 75.8029 63.3543C75.8903 63.3937 75.9619 63.4882 75.9857 63.5748C75.7472 63.7559 75.4054 63.9528 74.8807 63.9528C74.046 63.9528 73.4497 63.4331 73.4497 62.5276C73.4497 61.622 74.0778 61.0866 74.833 61.0866C75.5485 61.0866 76.097 61.5512 76.105 62.3543C76.105 62.4409 76.105 62.4803 76.0891 62.5827ZM75.7393 62.3071C75.7393 61.7323 75.3736 61.3779 74.833 61.3779C74.2606 61.3779 73.8711 61.7795 73.8154 62.3071H75.7313H75.7393Z" fill="url(#paint10_linear_9_137)"/>
<path d="M82.4169 61.4488V63.8425C82.4169 64.5276 81.8843 65.0079 81.1211 65.0079C80.509 65.0079 80.1274 64.8268 79.865 64.5354C79.8968 64.4567 79.9763 64.3622 80.0956 64.3228C80.2784 64.5276 80.5567 64.7244 81.1211 64.7244C81.7253 64.7244 82.0671 64.3622 82.0671 63.8504V63.5748C81.8525 63.7008 81.606 63.7874 81.288 63.7874C80.4533 63.7874 79.7935 63.2992 79.7935 62.4646C79.7935 61.6299 80.4772 61.1024 81.3198 61.1024C81.773 61.1024 82.1625 61.252 82.4169 61.4567V61.4488ZM82.0671 63.252V61.6142C81.8843 61.4724 81.6299 61.3937 81.3198 61.3937C80.6361 61.3937 80.1512 61.8189 80.1512 62.4488C80.1512 63.0787 80.6282 63.4882 81.3119 63.4882C81.6617 63.4882 81.8843 63.3779 82.0671 63.252Z" fill="url(#paint11_linear_9_137)"/>
<path d="M88.141 61.4646C87.99 61.4252 87.8151 61.4016 87.5925 61.4016C87.2824 61.4016 87.0042 61.4803 86.8293 61.5827V63.8819C86.7816 63.8898 86.718 63.8976 86.6544 63.8976C86.5987 63.8976 86.5351 63.8976 86.4795 63.8819V61.4331C86.718 61.252 87.1314 61.0866 87.6163 61.0866C87.8707 61.0866 88.0456 61.1181 88.2126 61.1732C88.2126 61.2677 88.1887 61.3779 88.1251 61.4567L88.141 61.4646Z" fill="url(#paint12_linear_9_137)"/>
<path d="M93.9924 62.1181V63.7087C93.6903 63.8661 93.1974 63.9606 92.8079 63.9606C91.989 63.9606 91.6074 63.5905 91.6074 63.0866C91.6074 62.5354 92.1162 62.2362 92.7761 62.2362C93.1497 62.2362 93.4439 62.315 93.6585 62.4173V62.1339C93.6585 61.6299 93.3087 61.4016 92.784 61.4016C92.4024 61.4016 92.1242 61.5197 91.9095 61.6693C91.8141 61.622 91.7585 61.5433 91.7346 61.4567C91.8777 61.3307 92.2514 61.1024 92.792 61.1024C93.4518 61.1024 93.9845 61.3937 93.9845 62.126L93.9924 62.1181ZM92.8079 63.6693C93.1656 63.6693 93.4598 63.6063 93.6585 63.5276V62.7165C93.4359 62.6063 93.1179 62.5197 92.7761 62.5197C92.2593 62.5197 91.9572 62.7165 91.9572 63.0551C91.9572 63.4173 92.2434 63.6614 92.8079 63.6614V63.6693Z" fill="url(#paint13_linear_9_137)"/>
<path d="M100.471 60.0787V63.7087C100.169 63.8504 99.8035 63.9528 99.3662 63.9528C98.5076 63.9528 97.8398 63.4567 97.8398 62.5433C97.8398 61.6299 98.5633 61.0945 99.3742 61.0945C99.6922 61.0945 99.9307 61.1417 100.137 61.2441V60.0787C100.185 60.0709 100.241 60.063 100.304 60.063C100.36 60.063 100.424 60.063 100.479 60.0787H100.471ZM100.129 63.5197V61.5827C99.9227 61.4488 99.6683 61.4016 99.3742 61.4016C98.6905 61.4016 98.1817 61.8504 98.1817 62.5433C98.1817 63.2362 98.6825 63.6614 99.3662 63.6614C99.6604 63.6614 99.9068 63.622 100.137 63.5276L100.129 63.5197Z" fill="url(#paint14_linear_9_137)"/>
<path d="M106.704 62.1181V63.7087C106.402 63.8661 105.909 63.9606 105.52 63.9606C104.701 63.9606 104.319 63.5905 104.319 63.0866C104.319 62.5354 104.828 62.2362 105.488 62.2362C105.862 62.2362 106.156 62.315 106.37 62.4173V62.1339C106.37 61.6299 106.021 61.4016 105.496 61.4016C105.114 61.4016 104.836 61.5197 104.621 61.6693C104.526 61.622 104.47 61.5433 104.447 61.4567C104.59 61.3307 104.963 61.1024 105.504 61.1024C106.164 61.1024 106.696 61.3937 106.696 62.126L106.704 62.1181ZM105.52 63.6693C105.878 63.6693 106.172 63.6063 106.37 63.5276V62.7165C106.148 62.6063 105.83 62.5197 105.488 62.5197C104.971 62.5197 104.669 62.7165 104.669 63.0551C104.669 63.4173 104.955 63.6614 105.52 63.6614V63.6693Z" fill="url(#paint15_linear_9_137)"/>
<path d="M13.2446 53.0787C13.4752 52.4409 13.8568 51.9449 14.461 51.622C15.415 52.3701 17.005 53.3622 19.859 53.3622C23.4365 53.3622 24.9151 51.9764 24.9151 50.2047C24.9151 48.4331 23.7386 47.5433 19.8987 46.9764C16.3213 46.4803 13.6978 45.3779 13.6978 42.3307C13.6978 39.5276 16.361 37.5748 20.4632 37.5748C23.357 37.5748 25.4796 38.4252 26.4733 39.1024C26.362 39.7087 26.052 40.2047 25.5591 40.6299C24.2315 39.8819 22.6335 39.3543 20.2724 39.3543C17.3468 39.3543 15.7886 40.4173 15.7886 42.126C15.7886 43.8346 17.1163 44.5748 20.2724 45.0709C24.4143 45.7087 27.006 46.8425 27.006 50C27.006 53.1575 24.303 55.1102 19.859 55.1102C16.4723 55.1102 14.2702 53.937 13.2446 53.0866V53.0787Z" fill="url(#paint16_linear_9_137)"/>
<path d="M44.9969 43.8504V53.6063C43.1366 54.5669 40.1315 55.1339 37.6988 55.1339C32.6824 55.1339 30.3213 52.8661 30.3213 49.7716C30.3213 46.3622 33.4377 44.5591 37.508 44.5591C39.7897 44.5591 41.6182 45.0551 42.9458 45.6614V43.9213C42.9458 40.8346 40.8152 39.4173 37.5875 39.4173C35.2264 39.4173 33.5172 40.1654 32.2293 41.0472C31.6171 40.7638 31.2753 40.2677 31.164 39.7323C32.0385 38.9528 34.3599 37.5669 37.667 37.5669C41.7374 37.5669 45.0048 39.3386 45.0048 43.8504H44.9969ZM37.7306 53.3622C39.9328 53.3622 41.7215 52.9685 42.9379 52.5118V47.5433C41.5705 46.8661 39.6307 46.3386 37.5001 46.3386C34.344 46.3386 32.4837 47.5433 32.4837 49.6378C32.4837 51.8346 34.2327 53.3622 37.7306 53.3622Z" fill="url(#paint17_linear_9_137)"/>
<path d="M65.7223 38.1339V53.6378C63.8223 54.4173 61.4214 55.1654 57.9234 55.1654C52.8673 55.1654 50.5459 52.5748 50.5459 48.6378V38.1339C50.8877 38.063 51.2693 38.0236 51.6112 38.0236C51.9928 38.0236 52.3346 38.063 52.6765 38.1339V47.8189C52.6765 51.1181 53.7815 53.3228 58.4163 53.3228C60.4356 53.3228 62.1051 52.9291 63.5838 52.3622V38.1339C63.9257 38.063 64.3073 38.0236 64.6491 38.0236C64.9909 38.0236 65.3725 38.063 65.7144 38.1339H65.7223ZM54.8468 35.2205L60.2846 30.5354C61.008 30.8898 61.3499 31.3858 61.652 32.1654L55.4908 36.0315C55.0694 35.7795 54.9581 35.6063 54.8468 35.2126V35.2205Z" fill="url(#paint18_linear_9_137)"/>
<path d="M86.8215 31.3543V53.6378C84.9612 54.5275 82.7114 55.126 80.0163 55.126C74.7296 55.126 70.6274 52.0708 70.6274 46.4646C70.6274 40.8583 75.0794 37.5905 80.0561 37.5905C82.0356 37.5905 83.4746 37.874 84.7306 38.5118V31.3464C85.0327 31.2756 85.3746 31.2362 85.7562 31.2362C86.098 31.2362 86.4796 31.2756 86.8215 31.3464V31.3543ZM84.7306 52.4645V40.5748C83.4746 39.7559 81.9164 39.4409 80.0879 39.4409C75.8665 39.4409 72.7501 42.2126 72.7501 46.4331C72.7501 50.6535 75.8267 53.2834 80.0163 53.2834C81.8448 53.3228 83.3235 53.0315 84.7306 52.4645Z" fill="url(#paint19_linear_9_137)"/>
<path d="M107.889 46.7244H93.8969C94.0082 50.7008 96.5204 53.3228 100.511 53.3228C103.516 53.3228 105.075 52.2598 106.14 51.4803C106.672 51.7323 107.126 52.2992 107.277 52.8268C105.83 53.9606 103.699 55.1339 100.511 55.1339C95.3756 55.1339 91.7266 51.937 91.7266 46.4016C91.7266 40.8661 95.5664 37.5669 100.209 37.5669C104.582 37.5669 107.968 40.4094 108.008 45.3386C108.008 45.874 107.968 46.1181 107.897 46.7244H107.889ZM105.758 45.0551C105.758 41.5433 103.516 39.3386 100.209 39.3386C96.6714 39.3386 94.3182 41.8189 93.9764 45.0551H105.766H105.758Z" fill="url(#paint20_linear_9_137)"/>
<path d="M17.6012 11.583H11.7024V17.4255C11.7024 17.961 11.3049 18.4098 10.7722 18.4807C9.86592 18.5988 8.89602 18.5988 7.98973 18.4807C7.45708 18.4098 7.05958 17.961 7.05958 17.4255V11.583H1.15278C0.61218 11.583 0.159033 11.1893 0.0874837 10.6618C-0.0317654 9.76412 -0.0317654 8.80349 0.0874837 7.90585C0.159033 7.37829 0.61218 6.98459 1.15278 6.98459H7.05163V1.14207C7.05163 0.606635 7.46503 0.157816 7.99768 0.0869496C8.89602 -0.0232866 9.84206 -0.0232866 10.7404 0.0869496C11.281 0.157816 11.6865 0.606635 11.6865 1.14207V6.98459H17.5853C18.1259 6.98459 18.5791 7.39404 18.6506 7.9216C18.7619 8.81136 18.7619 9.74837 18.6506 10.6381C18.5791 11.1736 18.1259 11.5751 17.5853 11.5751L17.6012 11.583Z" fill="url(#paint21_linear_9_137)"/>
</g>
<defs>
<linearGradient id="paint0_linear_9_137" x1="13.1174" y1="61.9527" x2="109.826" y2="65.3399" gradientUnits="userSpaceOnUse">
<stop offset="0.05" stop-color="#313B61"/>
<stop offset="1" stop-color="#6D6E71"/>
</linearGradient>
<linearGradient id="paint1_linear_9_137" x1="13.1255" y1="61.7323" x2="109.834" y2="65.1194" gradientUnits="userSpaceOnUse">
<stop offset="0.05" stop-color="#313B61"/>
<stop offset="1" stop-color="#6D6E71"/>
</linearGradient>
<linearGradient id="paint2_linear_9_137" x1="13.1331" y1="61.4882" x2="109.842" y2="64.8834" gradientUnits="userSpaceOnUse">
<stop offset="0.05" stop-color="#313B61"/>
<stop offset="1" stop-color="#6D6E71"/>
</linearGradient>
<linearGradient id="paint3_linear_9_137" x1="13.1173" y1="61.9213" x2="109.826" y2="65.3084" gradientUnits="userSpaceOnUse">
<stop offset="0.05" stop-color="#313B61"/>
<stop offset="1" stop-color="#6D6E71"/>
</linearGradient>
<linearGradient id="paint4_linear_9_137" x1="13.1414" y1="61.2205" x2="109.85" y2="64.6076" gradientUnits="userSpaceOnUse">
<stop offset="0.05" stop-color="#313B61"/>
<stop offset="1" stop-color="#6D6E71"/>
</linearGradient>
<linearGradient id="paint5_linear_9_137" x1="13.1335" y1="61.5512" x2="109.842" y2="64.9383" gradientUnits="userSpaceOnUse">
<stop offset="0.05" stop-color="#313B61"/>
<stop offset="1" stop-color="#6D6E71"/>
</linearGradient>
<linearGradient id="paint6_linear_9_137" x1="13.1334" y1="61.3465" x2="109.85" y2="64.7416" gradientUnits="userSpaceOnUse">
<stop offset="0.05" stop-color="#313B61"/>
<stop offset="1" stop-color="#6D6E71"/>
</linearGradient>
<linearGradient id="paint7_linear_9_137" x1="20.7415" y1="60.7323" x2="100.963" y2="63.5415" gradientUnits="userSpaceOnUse">
<stop offset="0.05" stop-color="#313B61"/>
<stop offset="1" stop-color="#6D6E71"/>
</linearGradient>
<linearGradient id="paint8_linear_9_137" x1="13.1572" y1="60.8031" x2="109.866" y2="64.1983" gradientUnits="userSpaceOnUse">
<stop offset="0.05" stop-color="#313B61"/>
<stop offset="1" stop-color="#6D6E71"/>
</linearGradient>
<linearGradient id="paint9_linear_9_137" x1="13.1731" y1="60.2756" x2="109.89" y2="63.6627" gradientUnits="userSpaceOnUse">
<stop offset="0.05" stop-color="#313B61"/>
<stop offset="1" stop-color="#6D6E71"/>
</linearGradient>
<linearGradient id="paint10_linear_9_137" x1="13.1732" y1="60.4016" x2="109.882" y2="63.7887" gradientUnits="userSpaceOnUse">
<stop offset="0.05" stop-color="#313B61"/>
<stop offset="1" stop-color="#6D6E71"/>
</linearGradient>
<linearGradient id="paint11_linear_9_137" x1="13.1571" y1="60.7087" x2="109.874" y2="64.0958" gradientUnits="userSpaceOnUse">
<stop offset="0.05" stop-color="#313B61"/>
<stop offset="1" stop-color="#6D6E71"/>
</linearGradient>
<linearGradient id="paint12_linear_9_137" x1="13.1889" y1="59.9528" x2="109.898" y2="63.3399" gradientUnits="userSpaceOnUse">
<stop offset="0.05" stop-color="#313B61"/>
<stop offset="1" stop-color="#6D6E71"/>
</linearGradient>
<linearGradient id="paint13_linear_9_137" x1="13.1892" y1="59.7874" x2="109.906" y2="63.1745" gradientUnits="userSpaceOnUse">
<stop offset="0.05" stop-color="#313B61"/>
<stop offset="1" stop-color="#6D6E71"/>
</linearGradient>
<linearGradient id="paint14_linear_9_137" x1="13.2206" y1="59.0315" x2="109.929" y2="62.4186" gradientUnits="userSpaceOnUse">
<stop offset="0.05" stop-color="#313B61"/>
<stop offset="1" stop-color="#6D6E71"/>
</linearGradient>
<linearGradient id="paint15_linear_9_137" x1="13.205" y1="59.3464" x2="109.922" y2="62.7416" gradientUnits="userSpaceOnUse">
<stop offset="0.05" stop-color="#313B61"/>
<stop offset="1" stop-color="#6D6E71"/>
</linearGradient>
<linearGradient id="paint16_linear_9_137" x1="13.2446" y1="46.3307" x2="27.0139" y2="46.3307" gradientUnits="userSpaceOnUse">
<stop offset="0.9" stop-color="#E88C38"/>
<stop offset="0.98" stop-color="#E88C38"/>
</linearGradient>
<linearGradient id="paint17_linear_9_137" x1="30.3213" y1="46.3543" x2="44.9969" y2="46.3543" gradientUnits="userSpaceOnUse">
<stop offset="0.9" stop-color="#E88C38"/>
<stop offset="0.98" stop-color="#E88C38"/>
</linearGradient>
<linearGradient id="paint18_linear_9_137" x1="50.5459" y1="42.8583" x2="65.7223" y2="42.8583" gradientUnits="userSpaceOnUse">
<stop offset="0.9" stop-color="#E88C38"/>
<stop offset="0.98" stop-color="#E88C38"/>
</linearGradient>
<linearGradient id="paint19_linear_9_137" x1="70.6274" y1="43.189" x2="86.8215" y2="43.189" gradientUnits="userSpaceOnUse">
<stop offset="0.9" stop-color="#E88C38"/>
<stop offset="0.98" stop-color="#E88C38"/>
</linearGradient>
<linearGradient id="paint20_linear_9_137" x1="91.7266" y1="46.3543" x2="108" y2="46.3543" gradientUnits="userSpaceOnUse">
<stop offset="0.9" stop-color="#E88C38"/>
<stop offset="0.98" stop-color="#E88C38"/>
</linearGradient>
<linearGradient id="paint21_linear_9_137" x1="-2.8699" y1="17.2602" x2="25.1726" y2="-1.34907" gradientUnits="userSpaceOnUse">
<stop offset="0.05" stop-color="#FEC868"/>
<stop offset="0.9" stop-color="#E88C38"/>
</linearGradient>
<clipPath id="clip0_9_137">
<rect width="108" height="65" fill="white"/>
</clipPath>
</defs>
</svg>
